<svg xmlns="http://www.w3.org/2000/svg" xmlns:xlink="http://www.w3.org/1999/xlink" version="1.1" width="1000" height="1000" viewBox="0 0 1000 1000" xml:space="preserve">
<desc>Created with Fabric.js 3.5.0</desc>
<defs>
</defs>
<rect x="0" y="0" width="100%" height="100%" fill="#ffffff"/>
<g transform="matrix(-1 0 0 1 500.0018 500)" id="641762">
<g style="">
		<g transform="matrix(1.0569 0 0 1.0569 280.3547 10.969)" id="190272">
<path style="stroke: none; stroke-width: 1; stroke-dasharray: none; stroke-linecap: butt; stroke-dashoffset: 0; stroke-linejoin: miter; stroke-miterlimit: 4; is-custom-font: none; font-file-url: none; fill: rgb(230,230,230); fill-rule: nonzero; opacity: 1;" transform=" translate(-865.2606, -460.3823)" d="M 973.93474 661.6294 H 756.58639 A 29.859 29.859 0 0 1 726.76056 631.804 V 288.961 a 29.85942 29.85942 0 0 1 29.82583 -29.82582 H 973.93474 a 29.85941 29.85941 0 0 1 29.82582 29.82582 V 631.804 A 29.859 29.859 0 0 1 973.93474 661.6294 Z" stroke-linecap="round"/>
</g>
		<g transform="matrix(1.0569 0 0 1.0569 282.0432 10.4871)" id="480869">
<path style="stroke: none; stroke-width: 1; stroke-dasharray: none; stroke-linecap: butt; stroke-dashoffset: 0; stroke-linejoin: miter; stroke-miterlimit: 4; is-custom-font: none; font-file-url: none; fill: rgb(255,255,255); fill-rule: nonzero; opacity: 1;" transform=" translate(-866.8578, -459.9259)" d="M 977.53913 276.93253 H 756.17645 a 9.34834 9.34834 0 0 0 -9.33681 9.33676 V 633.58254 a 9.35131 9.35131 0 0 0 9.33681 9.33681 H 977.53913 a 9.34833 9.34833 0 0 0 9.33675 -9.33681 V 286.26929 A 9.34829 9.34829 0 0 0 977.53913 276.93253 Z" stroke-linecap="round"/>
</g>
		<g transform="matrix(1.0569 0 0 1.0569 181.7234 -201.7291)" id="927353">
<path style="stroke: none; stroke-width: 1; stroke-dasharray: none; stroke-linecap: butt; stroke-dashoffset: 0; stroke-linejoin: miter; stroke-miterlimit: 4; is-custom-font: none; font-file-url: none; fill: rgb(230,230,230); fill-rule: nonzero; opacity: 1;" transform=" translate(-771.9385, -259.1352)" d="M 761.899 259.13517 a 2.2844 2.2844 0 0 1 2.28171 -2.28171 h 15.51565 a 2.28171 2.28171 0 1 1 0 4.56342 H 764.18066 A 2.2844 2.2844 0 0 1 761.899 259.13517 Z" stroke-linecap="round"/>
</g>
		<g transform="matrix(1.0569 0 0 1.0569 208.7331 -201.7291)" id="45593">
<path style="stroke: none; stroke-width: 1; stroke-dasharray: none; stroke-linecap: butt; stroke-dashoffset: 0; stroke-linejoin: miter; stroke-miterlimit: 4; is-custom-font: none; font-file-url: none; fill: rgb(230,230,230); fill-rule: nonzero; opacity: 1;" transform=" translate(-797.4937, -259.1352)" d="M 787.45414 259.13517 a 2.2844 2.2844 0 0 1 2.28171 -2.28171 H 805.2515 a 2.28171 2.28171 0 1 1 0 4.56342 H 789.73585 A 2.2844 2.2844 0 0 1 787.45414 259.13517 Z" stroke-linecap="round"/>
</g>
		<g transform="matrix(1.0569 0 0 1.0569 370.792 -201.7291)" id="825613">
<path style="stroke: none; stroke-width: 1; stroke-dasharray: none; stroke-linecap: butt; stroke-dashoffset: 0; stroke-linejoin: miter; stroke-miterlimit: 4; is-custom-font: none; font-file-url: none; fill: rgb(230,230,230); fill-rule: nonzero; opacity: 1;" transform=" translate(-950.8248, -259.1352)" d="M 940.78528 259.13517 a 2.2844 2.2844 0 0 1 2.28171 -2.28171 h 15.51565 a 2.28171 2.28171 0 0 1 0 4.56342 H 943.067 A 2.2844 2.2844 0 0 1 940.78528 259.13517 Z" stroke-linecap="round"/>
</g>
		<g transform="matrix(1.0569 0 0 1.0569 234.83 106.5813)" id="905887">
<path style="stroke: none; stroke-width: 1; stroke-dasharray: none; stroke-linecap: butt; stroke-dashoffset: 0; stroke-linejoin: miter; stroke-miterlimit: 4; is-custom-font: none; font-file-url: none; fill: rgb(242,242,242); fill-rule: nonzero; opacity: 1;" transform=" translate(-822.1864, -550.8431)" d="M 897.5331 635.76388 c 0 2.40036 -0.04562 4.79159 -0.15514 7.15547 H 756.17645 a 9.35131 9.35131 0 0 1 -9.33681 -9.33681 V 458.76681 A 179.28922 179.28922 0 0 1 897.5331 635.76388 Z" stroke-linecap="round"/>
</g>
		<g transform="matrix(1.0569 0 0 1.0569 281.5694 -81.1383)" id="761070">
<rect style="stroke: none; stroke-width: 1; stroke-dasharray: none; stroke-linecap: butt; stroke-dashoffset: 0; stroke-linejoin: miter; stroke-miterlimit: 4; is-custom-font: none; font-file-url: none; fill: rgb(29,156,181); fill-rule: nonzero; opacity: 1;" x="-30.66935" y="-7.0462" rx="4.33898" ry="4.33898" width="61.3387" height="14.0924"/>
</g>
		<g transform="matrix(1.0569 0 0 1.0569 281.5687 -51.3492)" id="891838">
<rect style="stroke: none; stroke-width: 1; stroke-dasharray: none; stroke-linecap: butt; stroke-dashoffset: 0; stroke-linejoin: miter; stroke-miterlimit: 4; is-custom-font: none; font-file-url: none; fill: rgb(230,230,230); fill-rule: nonzero; opacity: 1;" x="-64.13875" y="-7.0462" rx="4.33898" ry="4.33898" width="128.2775" height="14.0924"/>
</g>
		<g transform="matrix(1.0569 0 0 1.0569 281.5687 -21.5601)" id="163124">
<rect style="stroke: none; stroke-width: 1; stroke-dasharray: none; stroke-linecap: butt; stroke-dashoffset: 0; stroke-linejoin: miter; stroke-miterlimit: 4; is-custom-font: none; font-file-url: none; fill: rgb(230,230,230); fill-rule: nonzero; opacity: 1;" x="-64.13875" y="-7.0462" rx="4.33898" ry="4.33898" width="128.2775" height="14.0924"/>
</g>
		<g transform="matrix(1.0569 0 0 1.0569 282.0531 127.6908)" id="768440">
<path style="stroke: none; stroke-width: 1; stroke-dasharray: none; stroke-linecap: butt; stroke-dashoffset: 0; stroke-linejoin: miter; stroke-miterlimit: 4; is-custom-font: none; font-file-url: none; fill: rgb(204,204,204); fill-rule: nonzero; opacity: 1;" transform=" translate(-866.8656, -570.8154)" d="M 905.7277 619.18312 a 3.3479 3.3479 0 0 1 -2.42636 -5.80273 l 0.2294 -0.912 q -0.0453 -0.10953 -0.09115 -0.21892 a 8.99055 8.99055 0 0 0 -16.5841 0.06163 c -2.71242 6.53275 -6.16579 13.07667 -7.0161 19.984 a 26.59733 26.59733 0 0 0 0.4669 9.14736 a 106.63467 106.63467 0 0 1 -9.70014 -44.28879 a 102.92258 102.92258 0 0 1 0.63842 -11.482 q 0.52887 -4.68811 1.46746 -9.30947 a 107.87005 107.87005 0 0 1 21.39163 -45.71811 A 28.70736 28.70736 0 0 0 906.043 518.25689 a 21.8981 21.8981 0 0 0 1.99149 -5.984 c -0.58122 0.07624 -1.172 0.12388 -1.75322 0.162 c -0.18108 0.00948 -0.37163 0.019 -0.5527 0.0286 l -0.06829 0.00305 a 3.317 3.317 0 0 1 -2.72419 -5.404 q 0.37644 -0.46328 0.75335 -0.92609 c 0.38118 -0.47646 0.77185 -0.94336 1.153 -1.41975 a 1.65137 1.65137 0 0 0 0.12387 -0.143 c 0.43839 -0.54314 0.87662 -1.07672 1.315 -1.61986 a 9.5916 9.5916 0 0 0 -3.14445 -3.03954 c -4.39269 -2.57271 -10.45288 -0.79089 -13.62593 3.18253 c -3.18253 3.97335 -3.78279 9.54767 -2.67755 14.512 a 38.43857 38.43857 0 0 0 5.317 11.85351 c -0.23826 0.305 -0.486 0.60034 -0.72421 0.90529 a 108.56725 108.56725 0 0 0 -11.33163 17.952 a 45.13222 45.13222 0 0 0 -2.69445 -20.963 c -2.57905 -6.22169 -7.41311 -11.46162 -11.67007 -16.84027 c -5.1133 -6.46057 -15.5986 -3.641 -16.49946 4.54876 q -0.01306 0.11893 -0.02554 0.23781 q 0.94846 0.53507 1.85684 1.13583 a 4.54119 4.54119 0 0 1 -1.83091 8.26411 l -0.0926 0.0143 a 45.18422 45.18422 0 0 0 1.191 6.7558 a 46.52269 46.52269 0 0 0 23.164 29.15748 c 0.37163 0.19055 0.73377 0.3811 1.1054 0.56218 a 110.81472 110.81472 0 0 0 -5.96492 28.07119 A 105.10444 105.10444 0 0 0 868.71 606.2343 l -0.0286 -0.20012 a 27.77289 27.77289 0 0 0 -9.481 -16.0366 c -7.29612 -5.99352 -17.60417 -8.20057 -25.47539 -13.01818 a 5.21218 5.21218 0 0 0 -7.983 5.07064 q 0.01582 0.10518 0.03219 0.21036 a 30.50849 30.50849 0 0 1 3.42072 1.64839 q 0.94845 0.53519 1.85684 1.13583 a 4.54124 4.54124 0 0 1 -1.83091 8.26418 l -0.09268 0.01422 c -0.06668 0.00956 -0.12388 0.01912 -0.19048 0.02868 a 45.22356 45.22356 0 0 0 8.3184 13.02551 a 46.564 46.564 0 0 0 33.76931 14.817 h 0.00956 a 110.783 110.783 0 0 0 7.44186 21.72517 h 26.58469 c 0.09536 -0.29539 0.18107 -0.60033 0.26687 -0.89572 a 30.20527 30.20527 0 0 1 -7.35614 -0.43823 c 1.97245 -2.42032 3.94482 -4.85967 5.91727 -7.27991 a 1.65238 1.65238 0 0 0 0.12388 -0.14291 c 1.00048 -1.23868 2.01053 -2.46788 3.011 -3.70656 l 0.00054 -0.00153 a 44.24377 44.24377 0 0 0 -1.29641 -11.27084 Z m -30.443 -59.88665 l 0.014 -0.01888 l -0.014 0.03792 Z m -5.8886 53.08374 l -0.22871 -0.51447 c 0.00956 -0.37163 0.00956 -0.74325 0 -1.12436 c 0 -0.10491 -0.019 -0.20967 -0.019 -0.31451 c 0.08572 0.65746 0.16195 1.315 0.25723 1.97245 Z" stroke-linecap="round"/>
</g>
		<g transform="matrix(1.0569 0 0 1.0569 282.0436 -152.2531)" id="599941">
<path style="stroke: none; stroke-width: 1; stroke-dasharray: none; stroke-linecap: butt; stroke-dashoffset: 0; stroke-linejoin: miter; stroke-miterlimit: 4; is-custom-font: none; font-file-url: none; fill: rgb(202,202,202); fill-rule: nonzero; opacity: 1;" transform=" translate(-866.8578, -305.9466)" d="M 966.47418 307.5955 H 767.24135 a 1.64925 1.64925 0 0 1 0 -3.2977 H 966.47418 a 1.64925 1.64925 0 0 1 0 3.2977 Z" stroke-linecap="round"/>
</g>
		<g transform="matrix(1.0569 0 0 1.0569 187.9937 -164.2714)" id="409304">
<ellipse style="stroke: none; stroke-width: 1; stroke-dasharray: none; stroke-linecap: butt; stroke-dashoffset: 0; stroke-linejoin: miter; stroke-miterlimit: 4; is-custom-font: none; font-file-url: none; fill: rgb(63,61,86); fill-rule: nonzero; opacity: 1;" cx="0" cy="0" rx="4.8462" ry="4.95421"/>
</g>
		<g transform="matrix(1.0569 0 0 1.0569 205.6881 -164.2714)" id="942259">
<ellipse style="stroke: none; stroke-width: 1; stroke-dasharray: none; stroke-linecap: butt; stroke-dashoffset: 0; stroke-linejoin: miter; stroke-miterlimit: 4; is-custom-font: none; font-file-url: none; fill: rgb(63,61,86); fill-rule: nonzero; opacity: 1;" cx="0" cy="0" rx="4.8462" ry="4.95421"/>
</g>
		<g transform="matrix(1.0569 0 0 1.0569 223.3825 -164.2714)" id="717912">
<ellipse style="stroke: none; stroke-width: 1; stroke-dasharray: none; stroke-linecap: butt; stroke-dashoffset: 0; stroke-linejoin: miter; stroke-miterlimit: 4; is-custom-font: none; font-file-url: none; fill: rgb(63,61,86); fill-rule: nonzero; opacity: 1;" cx="0" cy="0" rx="4.8462" ry="4.95421"/>
</g>
		<g transform="matrix(1.0569 0 0 1.0569 373.3704 -166.6166)" id="255057">
<path style="stroke: none; stroke-width: 1; stroke-dasharray: none; stroke-linecap: butt; stroke-dashoffset: 0; stroke-linejoin: miter; stroke-miterlimit: 4; is-custom-font: none; font-file-url: none; fill: rgb(63,61,86); fill-rule: nonzero; opacity: 1;" transform=" translate(-953.2642, -292.3567)" d="M 958.68675 291.5355 H 947.84163 a 0.82133 0.82133 0 0 0 0 1.64234 h 10.84512 a 0.82133 0.82133 0 0 0 0 -1.64234 Z" stroke-linecap="round"/>
</g>
		<g transform="matrix(1.0569 0 0 1.0569 373.3704 -163.3587)" id="153873">
<path style="stroke: none; stroke-width: 1; stroke-dasharray: none; stroke-linecap: butt; stroke-dashoffset: 0; stroke-linejoin: miter; stroke-miterlimit: 4; is-custom-font: none; font-file-url: none; fill: rgb(63,61,86); fill-rule: nonzero; opacity: 1;" transform=" translate(-953.2642, -295.4391)" d="M 958.68675 294.61792 H 947.84163 a 0.82133 0.82133 0 0 0 0 1.64234 h 10.84512 a 0.82133 0.82133 0 0 0 0 -1.64234 Z" stroke-linecap="round"/>
</g>
		<g transform="matrix(1.0569 0 0 1.0569 373.3704 -160.1052)" id="923195">
<path style="stroke: none; stroke-width: 1; stroke-dasharray: none; stroke-linecap: butt; stroke-dashoffset: 0; stroke-linejoin: miter; stroke-miterlimit: 4; is-custom-font: none; font-file-url: none; fill: rgb(63,61,86); fill-rule: nonzero; opacity: 1;" transform=" translate(-953.2642, -298.5175)" d="M 958.68675 297.69629 H 947.84163 a 0.82133 0.82133 0 0 0 0 1.64234 h 10.84512 a 0.82133 0.82133 0 0 0 0 -1.64234 Z" stroke-linecap="round"/>
</g>
		<g transform="matrix(1.0569 0 0 1.0569 -23.5877 109.0912)" id="983858">
<path style="stroke: none; stroke-width: 1; stroke-dasharray: none; stroke-linecap: butt; stroke-dashoffset: 0; stroke-linejoin: miter; stroke-miterlimit: 4; is-custom-font: none; font-file-url: none; fill: rgb(230,230,230); fill-rule: nonzero; opacity: 1;" transform=" translate(-577.6857, -553.218)" d="M 635.43274 458.89724 h -115.51 a 6.16309 6.16309 0 0 0 -6.15377 6.16965 v 182.4718 H 641.60239 V 465.06689 A 6.16641 6.16641 0 0 0 635.43274 458.89724 Z M 578.06635 562.57549 a 13.70383 13.70383 0 0 1 -13.63984 -13.63975 V 527.8892 a 13.6398 13.6398 0 0 1 27.27959 0 v 21.04654 a 13.70363 13.70363 0 0 1 -13.63975 13.63975 Z" stroke-linecap="round"/>
</g>
		<g transform="matrix(1.0569 0 0 1.0569 -23.5876 213.736)" id="177706">
<path style="stroke: none; stroke-width: 1; stroke-dasharray: none; stroke-linecap: butt; stroke-dashoffset: 0; stroke-linejoin: miter; stroke-miterlimit: 4; is-custom-font: none; font-file-url: none; fill: rgb(204,204,204); fill-rule: nonzero; opacity: 1;" transform=" translate(-577.6857, -652.2254)" d="M 513.37246 641.70214 V 659.307 a 3.44873 3.44873 0 0 0 3.44174 3.44164 h 121.743 a 3.459 3.459 0 0 0 3.44164 -3.44164 v -17.6049 Z" stroke-linecap="round"/>
</g>
		<g transform="matrix(1.0569 0 0 1.0569 -21.3288 -98.5849)" id="979316">
<path style="stroke: none; stroke-width: 1; stroke-dasharray: none; stroke-linecap: butt; stroke-dashoffset: 0; stroke-linejoin: miter; stroke-miterlimit: 4; is-custom-font: none; font-file-url: none; fill: rgb(230,230,230); fill-rule: nonzero; opacity: 1;" transform=" translate(-579.8268, -356.7281)" d="M 826.70694 174.1294 H 332.94669 a 16.02852 16.02852 0 0 0 -16.003 16.00291 v 333.1915 a 16.01831 16.01831 0 0 0 16.003 16.00291 H 826.70694 a 16.0183 16.0183 0 0 0 16.003 -16.00291 V 190.13231 A 16.02851 16.02851 0 0 0 826.70694 174.1294 Z" stroke-linecap="round"/>
</g>
		<g transform="matrix(1.0569 0 0 1.0569 -21.3265 -98.5913)" id="945360">
<path style="stroke: none; stroke-width: 1; stroke-dasharray: none; stroke-linecap: butt; stroke-dashoffset: 0; stroke-linejoin: miter; stroke-miterlimit: 4; is-custom-font: none; font-file-url: none; fill: rgb(255,255,255); fill-rule: nonzero; opacity: 1;" transform=" translate(-579.8287, -356.7218)" d="M 822.58545 185.68807 H 337.072 a 8.577 8.577 0 0 0 -8.55836 8.57616 v 324.933 a 8.57312 8.57312 0 0 0 8.55836 8.55835 H 822.58545 a 8.57312 8.57312 0 0 0 8.55836 -8.55835 v -324.933 A 8.577 8.577 0 0 0 822.58545 185.68807 Z" stroke-linecap="round"/>
</g>
		<g transform="matrix(1.0569 0 0 1.0569 113.8322 -98.5913)" id="317636">
<path style="stroke: none; stroke-width: 1; stroke-dasharray: none; stroke-linecap: butt; stroke-dashoffset: 0; stroke-linejoin: miter; stroke-miterlimit: 4; is-custom-font: none; font-file-url: none; fill: rgb(29,156,181); fill-rule: nonzero; opacity: 1;" transform=" translate(-707.7058, -356.7218)" d="M 831.14381 194.26423 v 324.933 a 8.57312 8.57312 0 0 1 -8.55836 8.55835 H 651.3826 a 210.0918 210.0918 0 0 1 -45.83429 -61.67 q -1.12107 -2.242 -2.13516 -4.53716 a 208.22672 208.22672 0 0 1 -18.50461 -71.22483 c -0.12456 -1.51234 -0.23132 -3.0248 -0.30245 -4.555 c -0.23131 -3.91445 -0.33807 -7.88222 -0.33807 -11.8678 a 209.12838 209.12838 0 0 1 14.75024 -77.41671 c 0.58719 -1.53016 1.2099 -3.04261 1.85052 -4.555 A 210.6655 210.6655 0 0 1 701.13144 185.68807 h 121.454 A 8.577 8.577 0 0 1 831.14381 194.26423 Z" stroke-linecap="round"/>
</g>
		<g transform="matrix(1.0569 0 0 1.0569 -30.6225 -233.9496)" id="783333">
<path style="stroke: none; stroke-width: 1; stroke-dasharray: none; stroke-linecap: butt; stroke-dashoffset: 0; stroke-linejoin: miter; stroke-miterlimit: 4; is-custom-font: none; font-file-url: none; fill: rgb(202,202,202); fill-rule: nonzero; opacity: 1;" transform=" translate(-571.033, -228.65)" d="M 798.17952 230.45658 h -454.293 a 1.807 1.807 0 0 1 0 -3.61318 h 454.293 a 1.807 1.807 0 0 1 0 3.61318 Z" stroke-linecap="round"/>
</g>
		<g transform="matrix(1.0569 0 0 1.0569 -238.0092 -257.0478)" id="928577">
<ellipse style="stroke: none; stroke-width: 1; stroke-dasharray: none; stroke-linecap: butt; stroke-dashoffset: 0; stroke-linejoin: miter; stroke-miterlimit: 4; is-custom-font: none; font-file-url: none; fill: rgb(63,61,86); fill-rule: nonzero; opacity: 1;" cx="0" cy="0" rx="10.58751" ry="10.82345"/>
</g>
		<g transform="matrix(1.0569 0 0 1.0569 -199.3523 -257.0478)" id="731363">
<ellipse style="stroke: none; stroke-width: 1; stroke-dasharray: none; stroke-linecap: butt; stroke-dashoffset: 0; stroke-linejoin: miter; stroke-miterlimit: 4; is-custom-font: none; font-file-url: none; fill: rgb(63,61,86); fill-rule: nonzero; opacity: 1;" cx="0" cy="0" rx="10.58751" ry="10.82345"/>
</g>
		<g transform="matrix(1.0569 0 0 1.0569 -160.6954 -257.0478)" id="118425">
<ellipse style="stroke: none; stroke-width: 1; stroke-dasharray: none; stroke-linecap: butt; stroke-dashoffset: 0; stroke-linejoin: miter; stroke-miterlimit: 4; is-custom-font: none; font-file-url: none; fill: rgb(63,61,86); fill-rule: nonzero; opacity: 1;" cx="0" cy="0" rx="10.58751" ry="10.82345"/>
</g>
		<g transform="matrix(1.0569 0 0 1.0569 172.4532 -263.5726)" id="484743">
<path style="stroke: none; stroke-width: 1; stroke-dasharray: none; stroke-linecap: butt; stroke-dashoffset: 0; stroke-linejoin: miter; stroke-miterlimit: 4; is-custom-font: none; font-file-url: none; fill: rgb(63,61,86); fill-rule: nonzero; opacity: 1;" transform=" translate(-763.1677, -200.6223)" d="M 776.15825 198.65509 h -25.981 a 1.96761 1.96761 0 0 0 0 3.93445 h 25.981 a 1.96761 1.96761 0 0 0 0 -3.93445 Z" stroke-linecap="round"/>
</g>
		<g transform="matrix(1.0569 0 0 1.0569 172.4532 -255.7679)" id="430025">
<path style="stroke: none; stroke-width: 1; stroke-dasharray: none; stroke-linecap: butt; stroke-dashoffset: 0; stroke-linejoin: miter; stroke-miterlimit: 4; is-custom-font: none; font-file-url: none; fill: rgb(63,61,86); fill-rule: nonzero; opacity: 1;" transform=" translate(-763.1677, -208.0067)" d="M 776.15825 206.03946 h -25.981 a 1.96761 1.96761 0 0 0 0 3.93445 h 25.981 a 1.96761 1.96761 0 0 0 0 -3.93445 Z" stroke-linecap="round"/>
</g>
		<g transform="matrix(1.0569 0 0 1.0569 172.4532 -247.9734)" id="275410">
<path style="stroke: none; stroke-width: 1; stroke-dasharray: none; stroke-linecap: butt; stroke-dashoffset: 0; stroke-linejoin: miter; stroke-miterlimit: 4; is-custom-font: none; font-file-url: none; fill: rgb(63,61,86); fill-rule: nonzero; opacity: 1;" transform=" translate(-763.1677, -215.3814)" d="M 776.15825 213.41413 h -25.981 a 1.96761 1.96761 0 0 0 0 3.93445 h 25.981 a 1.96761 1.96761 0 0 0 0 -3.93445 Z" stroke-linecap="round"/>
</g>
		<g transform="matrix(1.0569 0 0 1.0569 -157.2503 -112.3295)" id="299640">
<rect style="stroke: none; stroke-width: 1; stroke-dasharray: none; stroke-linecap: butt; stroke-dashoffset: 0; stroke-linejoin: miter; stroke-miterlimit: 4; is-custom-font: none; font-file-url: none; fill: rgb(29,156,181); fill-rule: nonzero; opacity: 1;" x="-36.1034" y="-7.7203" rx="4.33898" ry="4.33898" width="72.2068" height="15.4406"/>
</g>
		<g transform="matrix(1.0569 0 0 1.0569 -157.2511 -79.6906)" id="645851">
<rect style="stroke: none; stroke-width: 1; stroke-dasharray: none; stroke-linecap: butt; stroke-dashoffset: 0; stroke-linejoin: miter; stroke-miterlimit: 4; is-custom-font: none; font-file-url: none; fill: rgb(230,230,230); fill-rule: nonzero; opacity: 1;" x="-72.77475" y="-7.7203" rx="4.33898" ry="4.33898" width="145.5495" height="15.4406"/>
</g>
		<g transform="matrix(1.0569 0 0 1.0569 -157.2511 -47.0516)" id="964894">
<rect style="stroke: none; stroke-width: 1; stroke-dasharray: none; stroke-linecap: butt; stroke-dashoffset: 0; stroke-linejoin: miter; stroke-miterlimit: 4; is-custom-font: none; font-file-url: none; fill: rgb(230,230,230); fill-rule: nonzero; opacity: 1;" x="-72.77475" y="-7.7203" rx="4.33898" ry="4.33898" width="145.5495" height="15.4406"/>
</g>
		<g transform="matrix(1.0569 0 0 1.0569 -254.2767 44.1276)" id="686267">
<path style="stroke: none; stroke-width: 1; stroke-dasharray: none; stroke-linecap: butt; stroke-dashoffset: 0; stroke-linejoin: miter; stroke-miterlimit: 4; is-custom-font: none; font-file-url: none; fill: rgb(29,156,181); fill-rule: nonzero; opacity: 1;" transform=" translate(-359.4199, -491.7518)" d="M 390.326 509.12653 a 53.04966 53.04966 0 0 1 -3.34507 18.62906 H 337.072 a 8.57312 8.57312 0 0 1 -8.55836 -8.55835 V 456.42412 a 52.71645 52.71645 0 0 1 8.4338 -0.67613 A 53.37521 53.37521 0 0 1 390.326 509.12653 Z" stroke-linecap="round"/>
</g>
		<g transform="matrix(1.0569 0 0 1.0569 114.246 -71.2943)" id="358998">
<path style="stroke: none; stroke-width: 1; stroke-dasharray: none; stroke-linecap: butt; stroke-dashoffset: 0; stroke-linejoin: miter; stroke-miterlimit: 4; is-custom-font: none; font-file-url: none; fill: rgb(0,0,0); fill-rule: nonzero; opacity: 0.2;" transform=" translate(-708.0974, -382.5482)" d="M 831.58863 296.48417 v -4.555 H 755.23956 V 239.13786 H 750.7023 v 52.79135 H 663.19708 V 239.13786 h -4.53716 v 52.79135 H 600.86878 c -0.64062 1.51235 -1.26333 3.0248 -1.85052 4.555 h 59.64166 v 89.28451 H 584.60609 c 0.07113 1.53016 0.17789 3.04262 0.30245 4.555 h 73.75138 v 71.22483 H 603.41315 q 1.0142 2.29524 2.13516 4.53716 h 53.11161 V 525.9585 h 4.53716 V 466.08563 H 750.7023 V 525.9585 h 4.53726 V 466.08563 h 76.34907 v -4.53716 H 755.23956 v -0.00007 a 71.22476 71.22476 0 0 1 71.22476 -71.22476 h 5.12431 v -4.555 H 755.23956 V 296.48417 Z M 750.7023 461.54847 H 663.19708 V 390.32364 H 750.7023 Z m 0 -75.77979 H 663.19708 v -1.77937 a 87.50514 87.50514 0 0 1 87.50513 -87.50514 h 0.00009 Z" stroke-linecap="round"/>
</g>
		<g transform="matrix(1.0569 0 0 1.0569 121.45 -26.0529)" id="721806">
<path style="stroke: none; stroke-width: 1; stroke-dasharray: none; stroke-linecap: butt; stroke-dashoffset: 0; stroke-linejoin: miter; stroke-miterlimit: 4; is-custom-font: none; font-file-url: none; fill: rgb(47,46,65); fill-rule: nonzero; opacity: 1;" transform=" translate(-714.9121, -425.3522)" d="M 770.11592 494.045 a 4.75474 4.75474 0 0 1 -3.44595 -8.24114 c 0.11989 -0.47653 0.2059 -0.81872 0.32579 -1.29526 q -0.06434 -0.15557 -0.12945 -0.31092 c -4.3774 -10.43787 -19.21288 -10.36587 -23.553 0.08754 c -3.85222 9.27793 -8.75677 18.57172 -9.96439 28.38157 A 37.774 37.774 0 0 0 734.012 525.658 a 151.44445 151.44445 0 0 1 -13.77632 -62.89974 a 146.17434 146.17434 0 0 1 0.90669 -16.30689 q 0.75112 -6.65814 2.08412 -13.22149 a 153.19922 153.19922 0 0 1 30.38077 -64.92967 a 40.77066 40.77066 0 0 0 16.95642 -17.59248 a 31.09956 31.09956 0 0 0 2.82835 -8.49852 c -0.82546 0.10827 -1.66449 0.17593 -2.49 0.23 c -0.25716 0.01347 -0.52779 0.027 -0.785 0.04062 l -0.097 0.00434 a 4.71086 4.71086 0 0 1 -3.86895 -7.67479 q 0.53463 -0.658 1.06992 -1.31525 c 0.54136 -0.67668 1.09619 -1.33978 1.63745 -2.01635 a 2.34649 2.34649 0 0 0 0.17593 -0.20308 c 0.6226 -0.77138 1.245 -1.52918 1.86758 -2.30056 a 13.62216 13.62216 0 0 0 -4.46581 -4.31681 c -6.23857 -3.65381 -14.84536 -1.12324 -19.35178 4.51989 c -4.51989 5.643 -5.37239 13.55977 -3.8027 20.61023 c 1.33989 6.0356 4.26283 11.57046 7.55131 16.83457 c -0.33839 0.43309 -0.69025 0.85261 -1.02854 1.2857 a 154.18847 154.18847 0 0 0 -16.09338 25.49578 a 64.09776 64.09776 0 0 0 -3.8267 -29.77208 c -3.66283 -8.83615 -10.52823 -16.278 -16.574 -23.91685 c -7.262 -9.17541 -22.15342 -5.171 -23.43282 6.46023 q -0.01857 0.16892 -0.03627 0.33774 q 1.347 0.75992 2.6371 1.61313 a 6.44947 6.44947 0 0 1 -2.60029 11.73683 l -0.13151 0.02031 a 64.1738 64.1738 0 0 0 1.69153 9.59471 a 66.07241 66.07241 0 0 0 32.89788 41.41 c 0.52779 0.27063 1.04211 0.54126 1.56991 0.79842 a 157.38053 157.38053 0 0 0 -8.47148 39.86721 a 149.27026 149.27026 0 0 0 0.10827 24.10169 l -0.04061 -0.28421 a 39.44359 39.44359 0 0 0 -13.46508 -22.77547 c -10.36207 -8.5121 -25.00175 -11.64659 -36.1806 -18.48864 c -5.38119 -3.29359 -12.27678 0.96262 -11.33762 7.20141 q 0.02248 0.14937 0.04572 0.29875 a 43.32841 43.32841 0 0 1 4.85817 2.34107 q 1.347 0.76008 2.63711 1.61313 a 6.44955 6.44955 0 0 1 -2.60029 11.73694 l -0.13162 0.0202 c -0.0947 0.01357 -0.17593 0.02715 -0.27052 0.04072 a 64.22737 64.22737 0 0 0 11.81393 18.49907 a 66.131 66.131 0 0 0 47.95979 21.04332 h 0.01357 a 157.33552 157.33552 0 0 0 10.56907 30.85448 h 37.756 c 0.13542 -0.41952 0.25716 -0.85261 0.379 -1.27213 a 42.89713 42.89713 0 0 1 -10.44733 -0.62238 c 2.80131 -3.43737 5.60251 -6.90179 8.40382 -10.33905 a 2.34409 2.34409 0 0 0 0.17593 -0.203 c 1.42091 -1.7592 2.85539 -3.50492 4.2763 -5.26412 l 0.00076 -0.00217 a 62.83569 62.83569 0 0 0 -1.84119 -16.007 Z m -43.23573 -85.05208 l 0.01987 -0.02682 l -0.01987 0.05386 Z m -8.3631 75.39047 l -0.32482 -0.73065 c 0.01358 -0.5278 0.01358 -1.05559 0 -1.59684 c 0 -0.149 -0.027 -0.29778 -0.027 -0.44667 c 0.12174 0.93373 0.23 1.86758 0.36533 2.80131 Z" stroke-linecap="round"/>
</g>
		<g transform="matrix(1.0569 0 0 1.0569 -262.4214 46.7006)" id="185191">
<path style="stroke: none; stroke-width: 1; stroke-dasharray: none; stroke-linecap: butt; stroke-dashoffset: 0; stroke-linejoin: miter; stroke-miterlimit: 4; is-custom-font: none; font-file-url: none; fill: rgb(230,230,230); fill-rule: nonzero; opacity: 1;" transform=" translate(-351.7148, -494.1888)" d="M 433.9109 405.74122 h 0 V 354.99783 A 29.36884 29.36884 0 0 0 404.54206 325.629 H 297.03532 a 29.36886 29.36886 0 0 0 -29.36886 29.36886 v 278.382 a 29.36883 29.36883 0 0 0 29.36883 29.36883 h 107.5068 a 29.36878 29.36878 0 0 0 29.36878 -29.36878 V 441.8612 h 0 a 1.8523 1.8523 0 0 0 1.8523 -1.8523 V 407.59353 A 1.8523 1.8523 0 0 0 433.9109 405.74122 Z" stroke-linecap="round"/>
</g>
		<g transform="matrix(1.0569 0 0 1.0569 -262.4204 46.7015)" id="589844">
<path style="stroke: none; stroke-width: 1; stroke-dasharray: none; stroke-linecap: butt; stroke-dashoffset: 0; stroke-linejoin: miter; stroke-miterlimit: 4; is-custom-font: none; font-file-url: none; fill: rgb(255,255,255); fill-rule: nonzero; opacity: 1;" transform=" translate(-351.7156, -494.1896)" d="M 427.66059 355.19941 v 277.98 a 21.91853 21.91853 0 0 1 -21.69 21.92 a 1.92592 1.92592 0 0 1 -0.24006 0.01 h -108.03 a 21.93206 21.93206 0 0 1 -21.93 -21.93 v -277.98 a 21.932 21.932 0 0 1 21.93 -21.93 h 13.11 a 10.42747 10.42747 0 0 0 9.65 14.36 h 61.59 a 10.43506 10.43506 0 0 0 9.64 -14.36 h 14.04 A 21.932 21.932 0 0 1 427.66059 355.19941 Z" stroke-linecap="round"/>
</g>
		<g transform="matrix(1.0569 0 0 1.0569 -273.7399 139.7283)" id="251643">
<path style="stroke: none; stroke-width: 1; stroke-dasharray: none; stroke-linecap: butt; stroke-dashoffset: 0; stroke-linejoin: miter; stroke-miterlimit: 4; is-custom-font: none; font-file-url: none; fill: rgb(242,242,242); fill-rule: nonzero; opacity: 1;" transform=" translate(-341.0055, -582.2046)" d="M 406.24054 646.52937 q 0 4.32 -0.26995 8.57 a 1.92592 1.92592 0 0 1 -0.24006 0.01 h -108.03 a 21.93206 21.93206 0 0 1 -21.93 -21.93 v -123.88 A 137.38836 137.38836 0 0 1 406.24054 646.52937 Z" stroke-linecap="round"/>
</g>
		<g transform="matrix(1.0569 0 0 1.0569 -350.6243 -28.4008)" id="892239">
<path style="stroke: none; stroke-width: 1; stroke-dasharray: none; stroke-linecap: butt; stroke-dashoffset: 0; stroke-linejoin: miter; stroke-miterlimit: 4; is-custom-font: none; font-file-url: none; fill: rgb(230,230,230); fill-rule: nonzero; opacity: 1;" transform=" translate(-268.2606, -423.129)" d="M 268.26056 434.129 a 2.50295 2.50295 0 0 1 -2.5 -2.5 v -17 a 2.5 2.5 0 0 1 5 0 v 17 A 2.50294 2.50294 0 0 1 268.26056 434.129 Z" stroke-linecap="round"/>
</g>
		<g transform="matrix(1.0569 0 0 1.0569 -262.4192 -22.9614)" id="694434">
<rect style="stroke: none; stroke-width: 1; stroke-dasharray: none; stroke-linecap: butt; stroke-dashoffset: 0; stroke-linejoin: miter; stroke-miterlimit: 4; is-custom-font: none; font-file-url: none; fill: rgb(29,156,181); fill-rule: nonzero; opacity: 1;" x="-17.6034" y="-7.7203" rx="4.33898" ry="4.33898" width="35.2068" height="15.4406"/>
</g>
		<g transform="matrix(1.0569 0 0 1.0569 -262.42 9.6776)" id="316397">
<rect style="stroke: none; stroke-width: 1; stroke-dasharray: none; stroke-linecap: butt; stroke-dashoffset: 0; stroke-linejoin: miter; stroke-miterlimit: 4; is-custom-font: none; font-file-url: none; fill: rgb(230,230,230); fill-rule: nonzero; opacity: 1;" x="-54.27475" y="-7.7203" rx="4.33898" ry="4.33898" width="108.5495" height="15.4406"/>
</g>
		<g transform="matrix(1.0569 0 0 1.0569 -262.42 42.3165)" id="240049">
<rect style="stroke: none; stroke-width: 1; stroke-dasharray: none; stroke-linecap: butt; stroke-dashoffset: 0; stroke-linejoin: miter; stroke-miterlimit: 4; is-custom-font: none; font-file-url: none; fill: rgb(230,230,230); fill-rule: nonzero; opacity: 1;" x="-54.27475" y="-7.7203" rx="4.33898" ry="4.33898" width="108.5495" height="15.4406"/>
</g>
		<g transform="matrix(1.0569 0 0 1.0569 -262.4139 165.9936)" id="95627">
<path style="stroke: none; stroke-width: 1; stroke-dasharray: none; stroke-linecap: butt; stroke-dashoffset: 0; stroke-linejoin: miter; stroke-miterlimit: 4; is-custom-font: none; font-file-url: none; fill: rgb(204,204,204); fill-rule: nonzero; opacity: 1;" transform=" translate(-351.7208, -607.0549)" d="M 377.62087 639.29011 a 2.23124 2.23124 0 0 1 -1.61707 -3.86729 l 0.15289 -0.60782 q -0.0302 -0.073 -0.06075 -0.14591 a 5.99185 5.99185 0 0 0 -11.05266 0.04108 c -1.80772 4.35382 -4.10926 8.71509 -4.67595 13.31852 a 17.726 17.726 0 0 0 0.31117 6.09636 a 71.06775 71.06775 0 0 1 -6.46477 -29.51675 a 68.59517 68.59517 0 0 1 0.42548 -7.65228 q 0.35248 -3.12444 0.978 -6.2044 a 71.89124 71.89124 0 0 1 14.25668 -30.46933 a 19.13236 19.13236 0 0 0 7.95709 -8.25556 a 14.5946 14.5946 0 0 0 1.32725 -3.98808 c -0.38736 0.05081 -0.7811 0.08256 -1.16846 0.10794 c -0.12067 0.00632 -0.24767 0.01269 -0.36835 0.01906 l -0.04551 0.002 a 2.21065 2.21065 0 0 1 -1.81556 -3.60153 q 0.25088 -0.30874 0.50207 -0.61719 c 0.25405 -0.31755 0.51441 -0.62872 0.7684 -0.94621 a 1.10093 1.10093 0 0 0 0.08256 -0.0953 c 0.29217 -0.362 0.58423 -0.7176 0.87639 -1.07958 a 6.39241 6.39241 0 0 0 -2.09565 -2.02573 c -2.92755 -1.71461 -6.96643 -0.5271 -9.08115 2.121 c -2.121 2.64808 -2.52108 6.36315 -1.78448 9.67169 a 25.618 25.618 0 0 0 3.54358 7.89991 c -0.15879 0.20323 -0.32391 0.4001 -0.48266 0.60334 a 72.355 72.355 0 0 0 -7.55208 11.96431 a 30.07892 30.07892 0 0 0 -1.79575 -13.971 c -1.71884 -4.14651 -4.94055 -7.63872 -7.77764 -11.22338 a 6.17381 6.17381 0 0 0 -10.99625 3.03157 q -0.00871 0.07928 -0.017 0.15849 q 0.6321 0.35661 1.23751 0.757 a 3.02652 3.02652 0 0 1 -1.22023 5.5077 l -0.06172 0.00953 a 30.11472 30.11472 0 0 0 0.79378 4.50248 a 31.0056 31.0056 0 0 0 15.43788 19.43232 c 0.24767 0.127 0.489 0.254 0.7367 0.37467 a 73.85346 73.85346 0 0 0 -3.97538 18.70835 a 70.04857 70.04857 0 0 0 0.05081 11.31012 l -0.01906 -0.13337 a 18.50952 18.50952 0 0 0 -6.31871 -10.68777 c -4.86257 -3.99444 -11.73249 -5.46535 -16.97835 -8.6761 a 3.47371 3.47371 0 0 0 -5.32036 3.37938 l 0.02145 0.14019 a 20.33344 20.33344 0 0 1 2.27978 1.09859 q 0.6321 0.35668 1.23751 0.757 a 3.02655 3.02655 0 0 1 -1.22024 5.50775 l -0.06176 0.00948 c -0.04444 0.00637 -0.08256 0.01274 -0.127 0.01911 a 30.1398 30.1398 0 0 0 5.54389 8.681 a 31.03308 31.03308 0 0 0 22.50593 9.87493 h 0.00637 a 73.83125 73.83125 0 0 0 4.95971 14.479 h 17.71765 c 0.06355 -0.19686 0.12068 -0.4001 0.17786 -0.597 a 20.13045 20.13045 0 0 1 -4.90258 -0.29207 c 1.31456 -1.613 2.62907 -3.23878 3.94363 -4.85177 a 1.10052 1.10052 0 0 0 0.08256 -0.09525 c 0.66678 -0.82553 1.33994 -1.64474 2.00672 -2.47027 l 0.00036 -0.001 a 29.48674 29.48674 0 0 0 -0.864 -7.51157 Z M 357.33178 599.378 l 0.00933 -0.01259 l -0.00933 0.02527 Z m -3.92452 35.37823 l -0.15243 -0.34287 c 0.00638 -0.24768 0.00638 -0.49535 0 -0.74935 c 0 -0.06992 -0.01268 -0.13974 -0.01268 -0.2096 c 0.05712 0.43817 0.10793 0.87639 0.17143 1.31456 Z" stroke-linecap="round"/>
</g>
		<g transform="matrix(1.0569 0 0 1.0569 -351.1527 -63.2791)" id="236475">
<path style="stroke: none; stroke-width: 1; stroke-dasharray: none; stroke-linecap: butt; stroke-dashoffset: 0; stroke-linejoin: miter; stroke-miterlimit: 4; is-custom-font: none; font-file-url: none; fill: rgb(230,230,230); fill-rule: nonzero; opacity: 1;" transform=" translate(-267.7606, -390.129)" d="M 267.76056 401.129 a 2.50295 2.50295 0 0 1 -2.5 -2.5 v -17 a 2.5 2.5 0 0 1 5 0 v 17 A 2.50294 2.50294 0 0 1 267.76056 401.129 Z" stroke-linecap="round"/>
</g>
		<g transform="matrix(1.0569 0 0 1.0569 -269.2415 -120.3527)" id="279167">
<path style="stroke: none; stroke-width: 1; stroke-dasharray: none; stroke-linecap: butt; stroke-dashoffset: 0; stroke-linejoin: miter; stroke-miterlimit: 4; is-custom-font: none; font-file-url: none; fill: rgb(255,255,255); fill-rule: nonzero; opacity: 1;" transform=" translate(-345.2606, -336.129)" d="M 334.26056 336.129 a 2.50295 2.50295 0 0 1 2.5 -2.5 h 17 a 2.5 2.5 0 0 1 0 5 h -17 A 2.50295 2.50295 0 0 1 334.26056 336.129 Z" stroke-linecap="round"/>
</g>
		<g transform="matrix(1.0569 0 0 1.0569 -350.6243 2.2499)" id="159449">
<path style="stroke: none; stroke-width: 1; stroke-dasharray: none; stroke-linecap: butt; stroke-dashoffset: 0; stroke-linejoin: miter; stroke-miterlimit: 4; is-custom-font: none; font-file-url: none; fill: rgb(230,230,230); fill-rule: nonzero; opacity: 1;" transform=" translate(-268.2606, -452.129)" d="M 268.26056 463.129 a 2.50295 2.50295 0 0 1 -2.5 -2.5 v -17 a 2.5 2.5 0 0 1 5 0 v 17 A 2.50294 2.50294 0 0 1 268.26056 463.129 Z" stroke-linecap="round"/>
</g>
		<g transform="matrix(1.0569 0 0 1.0569 -250.2168 -120.3527)" id="697480">
<circle style="stroke: none; stroke-width: 1; stroke-dasharray: none; stroke-linecap: butt; stroke-dashoffset: 0; stroke-linejoin: miter; stroke-miterlimit: 4; is-custom-font: none; font-file-url: none; fill: rgb(255,255,255); fill-rule: nonzero; opacity: 1;" cx="0" cy="0" r="2.5"/>
</g>
		<g transform="matrix(1.0569 0 0 1.0569 -0.0091 223.7555)" id="223431">
<path style="stroke: none; stroke-width: 1; stroke-dasharray: none; stroke-linecap: butt; stroke-dashoffset: 0; stroke-linejoin: miter; stroke-miterlimit: 4; is-custom-font: none; font-file-url: none; fill: rgb(202,202,202); fill-rule: nonzero; opacity: 1;" transform=" translate(-600.0017, -661.7051)" d="M 1028.875 662.74206 l -857.75 0.30734 a 1.19069 1.19069 0 0 1 0 -2.38137 l 857.75 -0.30733 a 1.19068 1.19068 0 0 1 0 2.38136 Z" stroke-linecap="round"/>
</g>
		<g transform="matrix(1.0569 0 0 1.0569 -96.7133 -71.1928)" id="79679">
<path style="stroke: none; stroke-width: 1; stroke-dasharray: none; stroke-linecap: butt; stroke-dashoffset: 0; stroke-linejoin: miter; stroke-miterlimit: 4; is-custom-font: none; font-file-url: none; fill: rgb(47,46,65); fill-rule: nonzero; opacity: 1;" transform=" translate(-508.4976, -382.6418)" d="M 536.70774 400.23565 l -4.51178 0.96682 a 25.97456 25.97456 0 0 0 -0.70141 -5.60184 a 16.82138 16.82138 0 0 1 -2.54029 6.29376 l -25.87636 5.526 l -24.84317 -26.21763 c -0.038 -13.10875 7.24154 -23.07069 20.29349 -23.07069 c 0.78673 0 1.60187 0.03789 2.4265 0.11374 a 27.60423 27.60423 0 0 1 31.60142 21.69635 C 541.80713 389.051 538.45176 394.40633 536.70774 400.23565 Z" stroke-linecap="round"/>
</g>
		<g transform="matrix(1.0569 0 0 1.0569 -46.132 252.3267)" id="56443">
<polygon style="stroke: none; stroke-width: 1; stroke-dasharray: none; stroke-linecap: butt; stroke-dashoffset: 0; stroke-linejoin: miter; stroke-miterlimit: 4; is-custom-font: none; font-file-url: none; fill: rgb(255,182,182); fill-rule: nonzero; opacity: 1;" points="-6.925,18.1025 2.461,18.1025 6.927,-18.1025 -6.927,-18.1015 -6.925,18.1025 "/>
</g>
		<g transform="matrix(1.0569 0 0 1.0569 -40.6981 277.9631)" id="525322">
<path style="stroke: none; stroke-width: 1; stroke-dasharray: none; stroke-linecap: butt; stroke-dashoffset: 0; stroke-linejoin: miter; stroke-miterlimit: 4; is-custom-font: none; font-file-url: none; fill: rgb(47,46,65); fill-rule: nonzero; opacity: 1;" transform=" translate(-561.4958, -712.9935)" d="M 547.1016 702.21 l 14.83766 -0.8856 v 6.35709 l 14.10658 9.74251 a 3.97089 3.97089 0 0 1 -2.25639 7.23856 H 556.12466 l -3.04479 -6.28815 l -1.18884 6.28815 H 545.2307 Z" stroke-linecap="round"/>
</g>
		<g transform="matrix(1.0569 0 0 1.0569 -153.8663 246.4682)" id="96656">
<polygon style="stroke: none; stroke-width: 1; stroke-dasharray: none; stroke-linecap: butt; stroke-dashoffset: 0; stroke-linejoin: miter; stroke-miterlimit: 4; is-custom-font: none; font-file-url: none; fill: rgb(255,182,182); fill-rule: nonzero; opacity: 1;" points="-14.957,13.4285 -6.793,18.0605 14.957,-11.2245 2.908,-18.0605 -14.957,13.4285 "/>
</g>
		<g transform="matrix(1.0569 0 0 1.0569 -166.5696 272.7438)" id="551864">
<path style="stroke: none; stroke-width: 1; stroke-dasharray: none; stroke-linecap: butt; stroke-dashoffset: 0; stroke-linejoin: miter; stroke-miterlimit: 4; is-custom-font: none; font-file-url: none; fill: rgb(47,46,65); fill-rule: nonzero; opacity: 1;" transform=" translate(-442.4032, -708.0554)" d="M 439.7257 691.44757 l 13.34209 6.552 l -3.13719 5.52908 l 7.46132 15.43505 a 3.97088 3.97088 0 0 1 -5.53467 5.18221 l -15.36394 -8.71746 l 0.45495 -6.9717 l -4.13716 4.88243 l -5.79281 -3.28683 Z" stroke-linecap="round"/>
</g>
		<g transform="matrix(1.0569 0 0 1.0569 -22.8346 -28.0571)" id="131139">
<path style="stroke: none; stroke-width: 1; stroke-dasharray: none; stroke-linecap: butt; stroke-dashoffset: 0; stroke-linejoin: miter; stroke-miterlimit: 4; is-custom-font: none; font-file-url: none; fill: rgb(255,182,182); fill-rule: nonzero; opacity: 1;" transform=" translate(-578.3972, -423.4542)" d="M 584.12407 406.57845 A 8.31273 8.31273 0 0 0 577.424 417.422 l -14.363 12.43183 l 5.426 10.571 l 20.03683 -17.841 a 8.35777 8.35777 0 0 0 -4.39963 -16.00537 Z" stroke-linecap="round"/>
</g>
		<g transform="matrix(1.0569 0 0 1.0569 -59.6905 -5.6215)" id="632566">
<path style="stroke: none; stroke-width: 1; stroke-dasharray: none; stroke-linecap: butt; stroke-dashoffset: 0; stroke-linejoin: miter; stroke-miterlimit: 4; is-custom-font: none; font-file-url: none; fill: rgb(47,46,65); fill-rule: nonzero; opacity: 1;" transform=" translate(-543.5267, -444.6818)" d="M 569.66026 449.32863 c -4.79112 7.25634 -15.529 14.2643 -31.46542 20.47709 a 6.83906 6.83906 0 0 1 -5.49825 -0.17967 c -6.014 -2.73707 -9.86837 -12.91192 -10.23019 -13.89889 l -11.64788 -15.7126 c -0.20677 -0.22889 -5.65354 -6.4106 -5.03056 -12.48783 a 8.87668 8.87668 0 0 1 3.82279 -6.36192 c 8.81731 -6.53644 28.57855 16.165 31.14284 19.1833 l 12.89683 -7.85786 l 9.39728 -4.19259 l 7.586 -9.23085 L 581.315 429.98732 l -9.6065 15.28305 A 18.4177 18.4177 0 0 1 569.66026 449.32863 Z" stroke-linecap="round"/>
</g>
		<g transform="matrix(1.0569 0 0 1.0569 -59.1227 57.9246)" id="212309">
<path style="stroke: none; stroke-width: 1; stroke-dasharray: none; stroke-linecap: butt; stroke-dashoffset: 0; stroke-linejoin: miter; stroke-miterlimit: 4; is-custom-font: none; font-file-url: none; fill: rgb(47,46,65); fill-rule: nonzero; opacity: 1;" transform=" translate(-544.0634, -504.8056)" d="M 536.16214 477.16877 s 27.59842 43.96063 22.59842 48.96063 s -12.78065 6.313 -12.78065 6.313 l -17.21935 -22.313 Z" stroke-linecap="round"/>
</g>
		<g transform="matrix(1.0569 0 0 1.0569 -78.5928 -3.9828)" id="998426">
<path style="stroke: none; stroke-width: 1; stroke-dasharray: none; stroke-linecap: butt; stroke-dashoffset: 0; stroke-linejoin: miter; stroke-miterlimit: 4; is-custom-font: none; font-file-url: none; fill: rgb(47,46,65); fill-rule: nonzero; opacity: 1;" transform=" translate(-525.6419, -446.2323)" d="M 511.76056 417.1294 l 13.0073 8.79906 a 33.552 33.552 0 0 1 13.07194 38.27628 l -3.66191 11.13047 Z" stroke-linecap="round"/>
</g>
		<g transform="matrix(1.0569 0 0 1.0569 -96.4864 146.98)" id="386352">
<polygon style="stroke: none; stroke-width: 1; stroke-dasharray: none; stroke-linecap: butt; stroke-dashoffset: 0; stroke-linejoin: miter; stroke-miterlimit: 4; is-custom-font: none; font-file-url: none; fill: rgb(47,46,65); fill-rule: nonzero; opacity: 1;" points="-19.9525,-51.937 -21.6915,-45.88 -27.6255,27.161 -57.2715,82.411 -43.1225,92.517 -2.6955,39.962 13.2945,-12.221 38.4055,103.298 57.2715,101.95 44.1685,-58.215 19.3055,-103.298 -19.9525,-51.937 "/>
</g>
		<g transform="matrix(1.0569 0 0 1.0569 -77.6815 30.4678)" id="852366">
<path style="stroke: none; stroke-width: 1; stroke-dasharray: none; stroke-linecap: butt; stroke-dashoffset: 0; stroke-linejoin: miter; stroke-miterlimit: 4; is-custom-font: none; font-file-url: none; fill: rgb(29,156,181); fill-rule: nonzero; opacity: 1;" transform=" translate(-526.5043, -478.8281)" d="M 509.54846 419.342 L 527.652 434.13714 a 24.65484 24.65484 0 0 1 8.18435 12.60337 v 0 a 24.65458 24.65458 0 0 1 0.86527 6.901 l -0.53945 32.12721 l 16.59842 44.36063 s -45 17 -51 2 S 509.54846 419.342 509.54846 419.342 Z" stroke-linecap="round"/>
</g>
		<g transform="matrix(1.0569 0 0 1.0569 -92.9826 23.4307)" id="141051">
<path style="stroke: none; stroke-width: 1; stroke-dasharray: none; stroke-linecap: butt; stroke-dashoffset: 0; stroke-linejoin: miter; stroke-miterlimit: 4; is-custom-font: none; font-file-url: none; fill: rgb(47,46,65); fill-rule: nonzero; opacity: 1;" transform=" translate(-512.0272, -472.1702)" d="M 514.9631 539.91579 c -22.48009 0 -27.95872 0.16916 -28.31367 0.09731 l -0.35559 -0.07186 V 526.42033 l 5.46672 -24.29093 c -0.63882 -7.54134 -2.13556 -17.48536 -2 -26 c 0.49 -30.77524 -1.02286 -60.83726 -1.02286 -60.83726 l 11.89811 -10.9826 L 506.041 407.827 l 10.02641 10.026 c 11.6544 28.68151 20.90231 55.68351 20.96053 57.41842 l 0.73265 29.858 l -3 12 C 521.18922 526.70953 533.58942 539.91579 514.9631 539.91579 Z" stroke-linecap="round"/>
</g>
		<g transform="matrix(1.0569 0 0 1.0569 -105.3794 4.6998)" id="258793">
<polygon style="stroke: none; stroke-width: 1; stroke-dasharray: none; stroke-linecap: butt; stroke-dashoffset: 0; stroke-linejoin: miter; stroke-miterlimit: 4; is-custom-font: none; font-file-url: none; fill: rgb(0,0,0); fill-rule: nonzero; opacity: 0.2;" points="-6.5175,-12.3445 -9.2505,4.7135 9.2505,12.3445 -6.5175,-12.3445 "/>
</g>
		<g transform="matrix(1.0569 0 0 1.0569 -92.5695 -70.8184)" id="489491">
<circle style="stroke: none; stroke-width: 1; stroke-dasharray: none; stroke-linecap: butt; stroke-dashoffset: 0; stroke-linejoin: miter; stroke-miterlimit: 4; is-custom-font: none; font-file-url: none; fill: rgb(255,182,182); fill-rule: nonzero; opacity: 1;" cx="0" cy="0" r="18.11367"/>
</g>
		<g transform="matrix(1.0569 0 0 1.0569 -101.4584 32.4113)" id="848565">
<path style="stroke: none; stroke-width: 1; stroke-dasharray: none; stroke-linecap: butt; stroke-dashoffset: 0; stroke-linejoin: miter; stroke-miterlimit: 4; is-custom-font: none; font-file-url: none; fill: rgb(0,0,0); fill-rule: nonzero; opacity: 0.2;" transform=" translate(-504.0078, -480.6659)" d="M 482.06684 474.90258 l 0 0 a 33.27248 33.27248 0 0 0 39.93954 8.07283 l 3.94238 -1.95109 Z" stroke-linecap="round"/>
</g>
		<g transform="matrix(1.0569 0 0 1.0569 -76.3719 26.7776)" id="513664">
<path style="stroke: none; stroke-width: 1; stroke-dasharray: none; stroke-linecap: butt; stroke-dashoffset: 0; stroke-linejoin: miter; stroke-miterlimit: 4; is-custom-font: none; font-file-url: none; fill: rgb(255,182,182); fill-rule: nonzero; opacity: 1;" transform=" translate(-527.7432, -475.3357)" d="M 545.09806 470.73289 a 8.31267 8.31267 0 0 0 -12.74075 0.38476 l -18.289 -5.13434 l -5.83084 10.35316 l 25.92939 6.88793 a 8.35777 8.35777 0 0 0 10.93117 -12.49151 Z" stroke-linecap="round"/>
</g>
		<g transform="matrix(1.0569 0 0 1.0569 -110.3041 -0.9764)" id="94736">
<path style="stroke: none; stroke-width: 1; stroke-dasharray: none; stroke-linecap: butt; stroke-dashoffset: 0; stroke-linejoin: miter; stroke-miterlimit: 4; is-custom-font: none; font-file-url: none; fill: rgb(47,46,65); fill-rule: nonzero; opacity: 1;" transform=" translate(-495.6388, -449.0769)" d="M 501.45435 482.2223 c -8.69535 0.00086 -20.46057 -5.0974 -34.42712 -14.97187 a 6.839 6.839 0 0 1 -2.88 -4.687 c -1.03022 -6.52671 5.33612 -15.35019 5.96031 -16.196 L 476.8 427.98888 c 0.077 -0.29868 2.23379 -8.25037 7.64826 -11.07957 a 8.87676 8.87676 0 0 1 7.41538 -0.316 c 10.3134 3.75553 2.26019 32.75562 1.15466 36.55876 l 13.66419 6.43148 l 8.67717 5.53112 l 11.88318 1.24319 l -3.22635 14.93118 l -18.04692 0.406 A 18.41807 18.41807 0 0 1 501.45435 482.2223 Z" stroke-linecap="round"/>
</g>
		<g transform="matrix(1.0569 0 0 1.0569 -102.1897 -69.8372)" id="595705">
<path style="stroke: none; stroke-width: 1; stroke-dasharray: none; stroke-linecap: butt; stroke-dashoffset: 0; stroke-linejoin: miter; stroke-miterlimit: 4; is-custom-font: none; font-file-url: none; fill: rgb(47,46,65); fill-rule: nonzero; opacity: 1;" transform=" translate(-503.3161, -383.9245)" d="M 534.139 371.0797 c -1.45024 1.88622 -6.44538 3.55444 -12.379 4.90038 c 0.00949 -0.12317 0.00949 -0.24639 0.00949 -0.36962 a 25.97447 25.97447 0 0 0 -0.7014 -5.60184 a 16.82145 16.82145 0 0 1 -2.5403 6.29375 c -0.09476 0.14221 -0.18952 0.28435 -0.29383 0.42655 c -5.09 1.00472 -10.47376 1.782 -14.69171 2.30327 c 2.90042 10.44536 14.01877 19.01392 12.815 25.36454 l -32.57768 6.65389 a 25.53908 25.53908 0 0 0 -0.62556 -7.86717 a 16.93373 16.93373 0 0 1 -4.72034 8.95722 l -2.76771 0.56869 l -0.82463 -4.06627 c -7.14679 -17.16559 2.81509 -34.73875 19.13714 -43.82868 a 19.84012 19.84012 0 0 1 12.56853 -8.43591 l 4.06627 -0.83412 A 19.93427 19.93427 0 0 1 534.139 371.0797 Z" stroke-linecap="round"/>
</g>
		<g transform="matrix(1.0569 0 0 1.0569 12.0504 269.5785)" id="639935">
<path style="stroke: none; stroke-width: 1; stroke-dasharray: none; stroke-linecap: butt; stroke-dashoffset: 0; stroke-linejoin: miter; stroke-miterlimit: 4; is-custom-font: none; font-file-url: none; fill: rgb(242,242,242); fill-rule: nonzero; opacity: 1;" transform=" translate(-611.4035, -705.0606)" d="M 611.96139 699.46589 l 0.48173 -10.83182 a 34.9833 34.9833 0 0 1 16.31744 -4.13057 c -7.837 6.4073 -6.8576 18.75842 -12.17087 27.37474 a 21.04264 21.04264 0 0 1 -15.43077 9.72408 l -6.55827 4.01542 a 35.26073 35.26073 0 0 1 7.43207 -28.57312 a 34.06013 34.06013 0 0 1 6.25957 -5.81618 C 609.863 695.37012 611.96139 699.46589 611.96139 699.46589 Z" stroke-linecap="round"/>
</g>
		<g transform="matrix(1.0569 0 0 1.0569 -91.2446 290.3149)" id="466133">
<path style="stroke: none; stroke-width: 1; stroke-dasharray: none; stroke-linecap: butt; stroke-dashoffset: 0; stroke-linejoin: miter; stroke-miterlimit: 4; is-custom-font: none; font-file-url: none; fill: rgb(202,202,202); fill-rule: nonzero; opacity: 1;" transform=" translate(-513.6735, -724.6799)" d="M 627.861 725.8706 H 399.479 a 1.19069 1.19069 0 0 1 0 -2.38137 H 627.861 a 1.19069 1.19069 0 1 1 0 2.38137 Z" stroke-linecap="round"/>
</g>
</g>
</g>
</svg>